# xmcd
#
# Track frame offsets: 
#        150
#        18844
#        38831
#        57674
#        77029
#        102305
#        118363
#        139871
#        160105
#        186115
#        208080
#        231699
#        249082
#        262397
#        279667
#        304821
#
# Disc length: 4358 seconds
#
# Revision: 0
# Processed by: cddbd v1.5.2PL0 Copyright (c) Steve Scherf et al.
# Submitted via: ExactAudioCopyFreeDBPlugin 1.0
#
DISCID=f0110410
DTITLE=群星 - stereo 试机6号
DYEAR=2009
DGENRE=Acid
TTITLE0=莫扎特弦乐小夜曲（Hq高清解码）
TTITLE1=相思（人声测试、超靓人声）
TTITLE2=我有一段情（小提琴协奏曲、动感十足）
TTITLE3=四季歌（清纯女声、低频通透）
TTITLE4=天鹅湖之华丽圆舞曲（选自皇家芭蕾、德国母盘直刻）
TTITLE5=梦驼铃（醇厚的男声演绎、定位一流）
TTITLE6=大峡谷（动态音效、超低频试音）
TTITLE7=沂蒙颂（男女声对唱、录音通透）
TTITLE8=班得瑞之仙境（钢琴与弦乐协奏、大自然现场感十足）
TTITLE9=大海（人声演绎、音色通透）
TTITLE10=天路（纯音乐演奏、音效极至环绕）
TTITLE11=雨中追忆（醇厚男声、音乐感极高）
TTITLE12=斯特劳斯之华尔兹 （弦乐五重奏、音色聆静）
TTITLE13=献给母亲的歌（天籁美声、测试人声）
TTITLE14=聆听中国之春江花月夜（全新民乐演奏、动态音效）
TTITLE15=特别收录：《柏林之声》动态音效测试
EXTD=
EXTT0=
EXTT1=
EXTT2=
EXTT3=
EXTT4=
EXTT5=
EXTT6=
EXTT7=
EXTT8=
EXTT9=
EXTT10=
EXTT11=
EXTT12=
EXTT13=
EXTT14=
EXTT15=
PLAYORDER=
